name C:\Users\r0593348\3dpredictsim\Results\Batchsim_tmt_linear_v2\Pog_s1_tmt_aCst_d00_k250_ig24_pas.mot
datacolumns 128
datarows 4
range 0.54585019 0.57860121
endheader
time	pelvis_tilt	pelvis_list	pelvis_rotation	pelvis_tx	pelvis_ty	pelvis_tz	hip_flexion_l	hip_adduction_l	hip_rotation_l	hip_flexion_r	hip_adduction_r	hip_rotation_r	knee_angle_l	knee_angle_r	ankle_angle_l	ankle_angle_r	subtalar_angle_l	subtalar_angle_r	tmt_angle_l	tmt_angle_r	mtp_angle_l	mtp_angle_r	lumbar_extension	lumbar_bending	lumbar_rotation	arm_flex_l	arm_add_l	arm_rot_l	arm_flex_r	arm_add_r	arm_rot_r	elbow_flex_l	elbow_flex_r	pro_sup_l	pro_sup_r	glut_med1_l/activation	glut_med2_l/activation	glut_med3_l/activation	glut_min1_l/activation	glut_min2_l/activation	glut_min3_l/activation	semimem_l/activation	semiten_l/activation	bifemlh_l/activation	bifemsh_l/activation	sar_l/activation	add_long_l/activation	add_brev_l/activation	add_mag1_l/activation	add_mag2_l/activation	add_mag3_l/activation	tfl_l/activation	pect_l/activation	grac_l/activation	glut_max1_l/activation	glut_max2_l/activation	glut_max3_l/activation	iliacus_l/activation	psoas_l/activation	quad_fem_l/activation	gem_l/activation	peri_l/activation	rect_fem_l/activation	vas_med_l/activation	vas_int_l/activation	vas_lat_l/activation	med_gas_l/activation	lat_gas_l/activation	soleus_l/activation	tib_post_l/activation	flex_dig_l/activation	flex_hal_l/activation	tib_ant_l/activation	per_brev_l/activation	per_long_l/activation	per_tert_l/activation	ext_dig_l/activation	ext_hal_l/activation	ercspn_l/activation	intobl_l/activation	extobl_l/activation	glut_med1_r/activation	glut_med2_r/activation	glut_med3_r/activation	glut_min1_r/activation	glut_min2_r/activation	glut_min3_r/activation	semimem_r/activation	semiten_r/activation	bifemlh_r/activation	bifemsh_r/activation	sar_r/activation	add_long_r/activation	add_brev_r/activation	add_mag1_r/activation	add_mag2_r/activation	add_mag3_r/activation	tfl_r/activation	pect_r/activation	grac_r/activation	glut_max1_r/activation	glut_max2_r/activation	glut_max3_r/activation	iliacus_r/activation	psoas_r/activation	quad_fem_r/activation	gem_r/activation	peri_r/activation	rect_fem_r/activation	vas_med_r/activation	vas_int_r/activation	vas_lat_r/activation	med_gas_r/activation	lat_gas_r/activation	soleus_r/activation	tib_post_r/activation	flex_dig_r/activation	flex_hal_r/activation	tib_ant_r/activation	per_brev_r/activation	per_long_r/activation	per_tert_r/activation	ext_dig_r/activation	ext_hal_r/activation	ercspn_r/activation	intobl_r/activation	extobl_r/activation	
          0.54585019	         -2.91297763	         -0.94354578	         -5.43047635	          0.68231274	          0.86902818	          0.00383212	         26.88561696	         -0.46008631	         -3.93099384	        -18.04000427	          1.53000782	          5.96626494	         -6.78855403	         -6.03448217	          6.73207671	         -9.34877278	          3.67925344	          7.50678039	          0.15772084	          4.32609915	         -0.07502985	         26.02572724	          0.54541898	          3.05179940	          1.59975863	         -9.01862224	        -13.45393482	         13.67070596	          3.78417396	        -13.47816773	         12.46453868	         16.59443901	         26.75909421	         86.51662706	         86.51662706	          0.05909793	          0.05000230	          0.05909900	          0.05000037	          0.05000069	          0.05909652	          0.13552318	          0.05909995	          0.12747915	          0.05909844	          0.05087930	          0.06017246	          0.08680922	          0.11180052	          0.11736976	          0.12463815	          0.05000105	          0.05000959	          0.07101384	          0.05910900	          0.10979735	          0.14266003	          0.05000019	          0.05000016	          0.12782648	          0.05000654	          0.06883064	          0.05000004	          0.05000017	          0.05000016	          0.05000016	          0.05909749	          0.05909750	          0.05909749	          0.05909746	          0.05909849	          0.05909776	          0.44559420	          0.28931225	          0.17972627	          0.19676576	          0.46111325	          0.21315236	          0.05000015	          0.13632169	          0.11884400	          0.25150045	          0.08255957	          0.06616121	          0.22757914	          0.14671923	          0.08255974	          0.05000190	          0.05000022	          0.05000019	          0.05000028	          0.07620409	          0.06184739	          0.05000029	          0.05000046	          0.05000148	          0.05000082	          0.23091028	          0.05000326	          0.05000075	          0.05000308	          0.05000187	          0.05000141	          0.37737200	          0.67321280	          0.05000019	          0.05000045	          0.05000043	          0.29062230	          0.11242038	          0.12089551	          0.08539469	          0.18536157	          0.27074563	          0.23662123	          0.22779005	          0.20613967	          0.27454805	          0.05000003	          0.08682280	          0.15090349	          0.05000022	          0.05000007	          0.05000022	          0.05000002	          0.05000003	          0.05000045	
          0.55676720	         -2.89150613	         -0.97807710	         -5.56590300	          0.69962727	          0.86786038	          0.00368451	         26.48217299	         -0.23362181	         -3.74574275	        -17.81144551	          1.36689924	          5.75782606	         -7.29170433	         -8.26559716	          5.87058167	        -10.01493281	          3.24740564	          8.60517820	          0.08943793	          3.94885302	         -0.05772010	         26.98871974	          0.78383949	          2.85356533	          1.65640604	        -10.26222415	        -13.44971031	         13.49133447	          3.53835999	        -13.50758081	         12.79451368	         16.64456418	         27.60907339	         86.51662706	         86.51662706	          0.05000060	          0.05000026	          0.05000142	          0.05000193	          0.05000091	          0.05000033	          0.11466068	          0.05000210	          0.10785495	          0.05000083	          0.05000087	          0.09758093	          0.11533723	          0.24615876	          0.21755845	          0.12789048	          0.05000070	          0.07093653	          0.06008206	          0.05001012	          0.09289556	          0.17619114	          0.05535559	          0.05909908	          0.38668708	          0.13235405	          0.13306988	          0.08501323	          0.26326496	          0.29097165	          0.20582971	          0.05000000	          0.05000002	          0.05000000	          0.05000005	          0.05000098	          0.05000034	          0.55524786	          0.24477568	          0.15205925	          0.41764131	          0.55182895	          0.25787800	          0.05000001	          0.11533626	          0.10054909	          0.21278438	          0.06985034	          0.05597665	          0.19254559	          0.12413325	          0.06985052	          0.05000158	          0.05000016	          0.05000017	          0.05000017	          0.06447334	          0.15812523	          0.20460276	          0.12753065	          0.05000604	          0.05000173	          0.19536389	          0.07312188	          0.05000202	          0.05000218	          0.05000157	          0.05000191	          0.31927917	          0.56957821	          0.06302453	          0.05916886	          0.05909760	          0.24588376	          0.14861355	          0.16112418	          0.13630607	          0.15682691	          0.22906694	          0.20425502	          0.19272420	          0.17440687	          0.23228427	          0.05000003	          0.07345736	          0.12767508	          0.05000017	          0.05000004	          0.05000018	          0.05000103	          0.08026568	          0.08182503	
          0.56768420	         -2.86345469	         -0.98630172	         -5.67349317	          0.71718496	          0.86656494	          0.00354198	         25.95966380	         -0.06155120	         -3.51477484	        -17.47463430	          1.18930208	          5.53647728	         -8.19390959	        -10.68979657	          5.03700266	        -10.61544296	          2.80072410	          9.68716041	         -0.08500155	          3.40178877	         -0.14116136	         27.56698551	          1.03832430	          2.61659953	          1.70177261	        -11.50751953	        -13.45801138	         13.38315273	          3.22387622	        -13.53902254	         13.06523252	         16.68630578	         28.46446394	         86.51662706	         86.51662706	          0.25161229	          0.19112504	          0.19761406	          0.05000031	          0.05000036	          0.20741503	          0.11031964	          0.05000031	          0.10623475	          0.05000007	          0.05000046	          0.08255939	          0.09758232	          0.20826508	          0.18406864	          0.14879818	          0.05000082	          0.06007416	          0.05083339	          0.05000037	          0.11654486	          0.15189095	          0.05000074	          0.05000164	          0.32716029	          0.11197949	          0.11258547	          0.07192625	          0.22273784	          0.24617934	          0.17414420	          0.05909761	          0.05909782	          0.05909750	          0.05748559	          0.05909764	          0.05909761	          0.46977270	          0.31583058	          0.17081246	          0.35334942	          0.57151443	          0.21818014	          0.05000001	          0.09758134	          0.08507052	          0.22509210	          0.05909758	          0.05002783	          0.16290514	          0.10502417	          0.05909775	          0.05890750	          0.05000030	          0.05000058	          0.05000005	          0.05454842	          0.13962087	          0.36834509	          0.10790120	          0.05910304	          0.11672434	          0.16528955	          0.06186638	          0.05000089	          0.05909529	          0.05909713	          0.05909758	          0.27012918	          0.50644456	          0.05909739	          0.05006077	          0.05000018	          0.20803228	          0.12573598	          0.13632070	          0.11532311	          0.13268490	          0.19380427	          0.17281190	          0.16305618	          0.14755872	          0.19652641	          0.05000006	          0.07817325	          0.14961160	          0.05000011	          0.14278862	          0.05000039	          0.05141952	          0.06790955	          0.06922894	
          0.57860121	         -2.83192983	         -0.97969120	         -5.75448931	          0.73477298	          0.86512002	          0.00339499	         25.29602200	          0.07986031	         -3.26011109	        -17.03176182	          1.01102073	          5.30352787	         -9.05856194	        -13.28035005	          4.35315586	        -11.07750219	          2.33722406	         10.71400421	         -0.03034010	          2.71546214	         -0.19845503	         27.51373739	          1.28829132	          2.35684683	          1.73754120	        -12.71157905	        -13.47713872	         13.36665338	          2.87671880	        -13.57780108	         13.29821775	         16.69536558	         29.31673394	         86.51662706	         86.51662706	          0.31789272	          0.33358624	          0.37136489	          0.21079264	          0.22940005	          0.26217393	          0.09333699	          0.09124500	          0.08988095	          0.08345329	          0.05909787	          0.06985019	          0.08256048	          0.17620475	          0.15573742	          0.17787002	          0.05000033	          0.05082691	          0.08261732	          0.21352848	          0.18815400	          0.19025527	          0.05000047	          0.05000025	          0.27679711	          0.09474160	          0.20387023	          0.06085389	          0.18844949	          0.20828240	          0.14733638	          0.05000011	          0.05000029	          0.05000000	          0.05000000	          0.05000023	          0.05000016	          0.61766798	          0.31329180	          0.15865814	          0.62573753	          0.62083053	          0.37014557	          0.05556885	          0.08255963	          0.07197472	          0.19044137	          0.05000010	          0.05000001	          0.17759836	          0.08885677	          0.05000030	          0.08024751	          0.05000042	          0.05000020	          0.05000157	          0.06984806	          0.18469685	          0.31164211	          0.09129107	          0.05000524	          0.09875597	          0.13984487	          0.08256322	          0.05000045	          0.05000043	          0.05000032	          0.05000041	          0.22854539	          0.45872330	          0.05000003	          0.05000013	          0.05000011	          0.17600768	          0.10638014	          0.11533544	          0.09757023	          0.11225932	          0.16396998	          0.14620917	          0.13848227	          0.12484367	          0.16627334	          0.07246273	          0.10502193	          0.12658061	          0.09948604	          0.17674799	          0.05909731	          0.07519971	          0.05745552	          0.05857182	
